<?xml version="1.0" standalone="no"?>
<!DOCTYPE svg PUBLIC "-//W3C//DTD SVG 20010904//EN"
 "http://www.w3.org/TR/2001/REC-SVG-20010904/DTD/svg10.dtd">
<svg version="1.0" xmlns="http://www.w3.org/2000/svg"
 width="495.000000pt" height="229.000000pt" viewBox="0 0 495.000000 229.000000"
 preserveAspectRatio="xMidYMid meet">

<g transform="translate(0.000000,229.000000) scale(0.100000,-0.100000)"
fill="#000000" stroke="none">
<path d="M1665 2169 c-113 -23 -478 -92 -610 -114 -82 -14 -220 -39 -305 -55
-85 -16 -211 -39 -280 -51 -68 -11 -126 -22 -128 -23 -4 -5 705 -476 716 -476
6 0 17 9 25 21 8 11 37 43 63 72 27 29 64 70 83 92 19 22 67 76 106 120 214
237 275 306 323 363 30 34 52 62 50 61 -1 -1 -21 -5 -43 -10z"/>
<path d="M345 1411 c7 -22 -3 -46 -162 -428 -3 -9 5 -13 25 -13 28 0 32 5 58
70 l27 70 102 0 102 0 27 -70 c27 -67 29 -70 61 -70 l34 0 -43 103 c-24 56
-68 159 -97 229 l-54 128 -43 0 c-38 0 -43 -2 -37 -19z m89 -158 c20 -47 34
-89 30 -92 -9 -10 -134 -9 -140 1 -6 9 57 178 67 178 3 0 23 -39 43 -87z"/>
<path d="M1999 1413 c5 -10 11 -88 13 -173 4 -173 15 -212 72 -253 46 -33 167
-37 224 -8 72 37 82 70 82 276 l0 175 -30 0 -30 0 0 -160 c0 -221 -19 -260
-125 -260 -106 0 -125 39 -125 260 l0 160 -45 0 c-40 0 -45 -2 -36 -17z"/>
<path d="M2846 1414 c-9 -8 -16 -19 -16 -24 0 -11 29 -40 40 -40 13 0 40 30
40 44 0 16 -20 36 -36 36 -7 0 -20 -7 -28 -16z"/>
<path d="M4142 1418 c-7 -7 -12 -18 -12 -24 0 -14 27 -44 40 -44 11 0 40 29
40 40 0 13 -30 40 -44 40 -6 0 -17 -5 -24 -12z"/>
<path d="M938 1299 c-41 -48 -45 -55 -28 -61 16 -6 19 -21 22 -118 3 -108 4
-113 31 -136 47 -41 147 -29 147 17 0 15 -5 19 -16 15 -46 -18 -63 -17 -83 3
-20 20 -21 31 -19 119 l3 97 48 3 c38 3 47 7 47 22 0 15 -9 19 -47 22 -46 3
-48 4 -53 37 l-5 35 -47 -55z"/>
<path d="M4308 1298 c-42 -49 -45 -56 -29 -61 17 -4 20 -17 23 -117 3 -108 4
-113 31 -136 47 -41 147 -29 147 17 0 15 -5 19 -16 15 -46 -18 -63 -17 -83 3
-20 20 -21 31 -19 119 l3 97 48 3 c38 3 47 7 47 22 0 15 -9 19 -47 22 -46 3
-48 4 -53 37 l-5 34 -47 -55z"/>
<path d="M715 1283 c-35 -9 -65 -44 -65 -78 0 -43 16 -62 86 -98 47 -26 59
-37 59 -57 0 -16 -9 -29 -26 -39 -23 -13 -32 -13 -72 1 l-47 15 0 -27 c0 -31
18 -40 88 -40 56 0 96 21 112 59 23 57 6 88 -75 133 -48 27 -60 39 -60 58 0
24 3 25 63 24 54 -1 62 1 62 18 0 30 -63 46 -125 31z"/>
<path d="M1236 1280 c-63 -19 -106 -83 -106 -157 0 -62 27 -112 76 -141 51
-30 149 -27 191 5 68 50 89 154 45 225 -39 63 -126 92 -206 68z m120 -58 c32
-25 44 -55 44 -105 0 -82 -72 -133 -143 -103 -81 33 -91 156 -17 213 22 18 92
15 116 -5z"/>
<path d="M1644 1281 c-12 -5 -25 -14 -29 -20 -9 -16 -25 -13 -25 4 0 11 -11
15 -42 15 -33 0 -39 -3 -30 -12 8 -8 12 -57 12 -155 l0 -143 30 0 30 0 0 109
c0 104 1 109 26 135 18 17 37 26 60 26 57 0 64 -17 64 -151 l0 -119 30 0 30 0
0 129 c0 121 -2 132 -23 156 -25 30 -94 43 -133 26z"/>
<path d="M2594 1281 c-12 -5 -25 -14 -29 -20 -9 -16 -25 -13 -25 4 0 11 -11
15 -42 15 -33 0 -39 -3 -30 -12 8 -8 12 -57 12 -155 l0 -143 30 0 30 0 0 109
c0 104 1 109 26 135 32 31 83 35 107 8 14 -15 17 -41 17 -135 l0 -117 30 0 30
0 0 129 c0 121 -2 132 -23 156 -25 30 -94 43 -133 26z"/>
<path d="M3364 1276 c-68 -30 -106 -117 -85 -194 21 -80 76 -122 159 -122 67
0 112 17 112 42 0 18 -4 19 -42 12 -85 -16 -137 1 -160 51 -22 48 -9 55 113
55 l111 0 -7 38 c-10 56 -26 84 -64 109 -38 26 -90 29 -137 9z m106 -46 c10
-5 23 -23 28 -40 l11 -30 -85 0 c-94 0 -105 10 -59 55 26 26 72 33 105 15z"/>
<path d="M3755 1278 c-11 -6 -28 -20 -37 -32 l-18 -21 0 28 c0 25 -3 27 -41
27 -30 0 -38 -3 -32 -12 4 -7 10 -78 13 -158 l5 -144 25 -1 c25 0 25 2 30 105
7 140 24 166 102 158 24 -2 32 2 39 19 13 37 -41 56 -86 31z"/>
<path d="M3914 1276 c-20 -9 -35 -26 -43 -46 -18 -54 5 -86 108 -142 41 -23
43 -64 4 -79 -26 -10 -56 -5 -110 17 -9 4 -13 -3 -13 -20 0 -35 37 -49 109
-43 44 3 59 9 78 31 24 29 30 74 13 106 -5 10 -37 33 -70 51 -33 19 -62 40
-65 47 -14 36 50 55 109 32 23 -9 26 -7 26 15 0 13 -4 27 -10 30 -23 14 -106
15 -136 1z"/>
<path d="M2835 1253 c11 -20 15 -63 15 -155 l0 -128 30 0 31 0 -3 153 -3 152
-42 3 -42 3 14 -28z"/>
<path d="M2952 1273 c36 -72 117 -246 127 -271 9 -20 20 -32 29 -30 12 2 139
272 141 301 1 4 -12 7 -28 7 -26 0 -30 -6 -67 -100 -21 -55 -41 -100 -44 -100
-3 0 -24 44 -46 98 -41 96 -42 97 -79 100 -20 2 -35 0 -33 -5z"/>
<path d="M4128 1268 c8 -8 12 -57 12 -155 l0 -143 30 0 30 0 0 155 0 155 -42
0 c-33 0 -39 -3 -30 -12z"/>
<path d="M4569 1151 l65 -128 -47 -102 c-26 -56 -47 -103 -47 -106 0 -3 13 -5
28 -5 28 0 33 9 131 223 57 122 105 228 108 235 3 8 -5 12 -24 12 -28 0 -33
-6 -71 -91 -23 -50 -45 -88 -50 -85 -5 3 -26 43 -46 90 -38 85 -39 86 -75 86
l-37 0 65 -129z"/>
<path d="M180 550 l0 -180 1285 0 1285 0 0 180 0 180 -1285 0 -1285 0 0 -180z
m299 57 c6 -7 10 -27 10 -43 -1 -16 2 -38 6 -50 11 -33 -18 -54 -76 -54 l-49
0 0 80 0 80 49 0 c28 0 53 -6 60 -13z m101 -67 c0 -47 -4 -80 -10 -80 -6 0
-10 33 -10 80 0 47 4 80 10 80 6 0 10 -33 10 -80z m182 63 c22 -20 23 -41 1
-65 -14 -16 -14 -22 -3 -43 21 -38 2 -43 -26 -7 -31 39 -52 41 -56 5 -2 -14
-9 -28 -15 -31 -10 -3 -13 17 -13 77 l0 81 47 0 c29 0 53 -6 65 -17z m128 -18
c12 -19 23 -35 25 -35 2 0 13 16 25 35 36 59 50 47 50 -45 0 -47 -4 -80 -10
-80 -5 0 -10 23 -10 50 0 56 -10 62 -35 23 l-18 -27 -22 27 c-26 34 -35 26
-35 -30 0 -23 -4 -43 -10 -43 -6 0 -10 33 -10 80 0 92 14 104 50 45z m198 -42
c-2 -50 -7 -78 -15 -81 -10 -3 -13 17 -13 77 0 66 3 81 15 81 13 0 15 -13 13
-77z m129 26 l38 -50 5 47 c3 26 11 49 18 52 9 3 12 -17 12 -77 0 -47 -4 -81
-10 -81 -5 0 -27 22 -47 49 -21 28 -41 50 -45 50 -4 1 -8 -20 -10 -46 -5 -76
-23 -56 -26 30 -4 95 10 101 65 26z m261 32 c3 -10 -3 -11 -27 -6 -40 9 -71
-16 -71 -56 0 -34 38 -64 70 -54 26 8 26 35 0 42 -30 8 -24 23 10 23 28 0 30
-3 30 -35 0 -24 -6 -37 -19 -45 -81 -43 -161 61 -99 127 18 19 31 23 62 21 22
-2 41 -9 44 -17z m104 -13 c3 -30 6 -33 38 -33 32 0 35 3 38 33 2 20 8 32 15
29 17 -5 16 -149 0 -154 -9 -3 -13 7 -13 31 0 35 -1 36 -40 36 -39 0 -40 -1
-40 -35 0 -38 -19 -49 -21 -12 -1 23 -1 90 0 120 2 30 20 18 23 -15z m285 -43
c18 -41 28 -77 23 -80 -5 -3 -14 4 -20 15 -15 29 -76 28 -101 -2 -15 -19 -18
-20 -19 -6 0 28 58 148 73 148 7 0 27 -34 44 -75z m141 39 l24 -36 24 36 c41
60 55 49 52 -39 -3 -84 -20 -101 -28 -28 l-5 48 -22 -30 -21 -30 -24 30 -23
30 -5 -48 c-7 -70 -25 -62 -28 12 -5 101 14 119 56 55z m282 -18 c0 -36 5 -60
16 -70 37 -38 64 -10 64 66 0 45 3 58 15 58 25 0 21 -114 -5 -140 -20 -20 -65
-26 -87 -12 -26 16 -46 126 -26 145 16 17 23 3 23 -47z m200 15 l5 -32 34 35
c19 20 42 36 50 36 10 0 7 -9 -12 -28 -34 -35 -34 -45 -1 -88 38 -49 19 -57
-22 -10 -35 41 -49 40 -56 -2 -1 -12 -7 -24 -13 -25 -6 -1 -11 31 -13 76 -2
61 0 78 10 75 7 -3 15 -19 18 -37z"/>
<path d="M394 585 c-9 -24 10 -39 41 -31 18 5 25 12 23 24 -4 23 -56 29 -64 7z"/>
<path d="M400 511 c0 -17 6 -21 36 -21 28 0 35 3 32 18 -2 11 -14 18 -36 20
-27 3 -32 0 -32 -17z"/>
<path d="M680 569 c0 -28 2 -30 33 -27 41 4 52 42 15 52 -41 11 -48 7 -48 -25z"/>
<path d="M1810 571 c0 -5 -3 -16 -6 -25 -4 -12 0 -16 15 -16 22 0 25 8 15 34
-7 17 -24 22 -24 7z"/>
</g>
</svg>
